<?xml version="1.0" encoding="utf-8"?>
<!-- Generator: Adobe Illustrator 19.2.1, SVG Export Plug-In . SVG Version: 6.00 Build 0)  -->
<svg version="1.1" id="Layer_1" xmlns="http://www.w3.org/2000/svg" xmlns:xlink="http://www.w3.org/1999/xlink" x="0px" y="0px"
	 viewBox="0 0 450.7 162.7" style="enable-background:new 0 0 450.7 162.7;" xml:space="preserve">
<style type="text/css">
	.st0{fill:#00FF06;}
</style>
<g>
	<path class="st0" d="M2.4,11.4C0.8,10.6,0,8.9,0,6.3c0-2.7,0.8-4.4,2.4-5.1C4,0.4,7.3,0,12.5,0c5.2,0,8.6,0.4,10.1,1.1
		C24.2,1.9,25,3.6,25,6.3c0,2.7-0.8,4.4-2.4,5.1c-1.6,0.8-5,1.1-10.1,1.1C7.3,12.5,4,12.1,2.4,11.4z M2.4,36.4C0.8,35.7,0,34,0,31.3
		c0-2.7,0.8-4.4,2.4-5.1C4,25.4,7.3,25,12.5,25c5.2,0,8.6,0.4,10.1,1.1c1.6,0.8,2.4,2.5,2.4,5.1c0,2.7-0.8,4.4-2.4,5.1
		c-1.6,0.8-5,1.1-10.1,1.1C7.3,37.6,4,37.2,2.4,36.4z M2.4,61.5C0.8,60.7,0,59,0,56.3c0-2.7,0.8-4.4,2.4-5.1c1.6-0.8,5-1.1,10.1-1.1
		c5.2,0,8.6,0.4,10.1,1.1c1.6,0.8,2.4,2.5,2.4,5.1c0,2.7-0.8,4.4-2.4,5.1c-1.6,0.8-5,1.1-10.1,1.1C7.3,62.6,4,62.2,2.4,61.5z
		 M0,81.4c0-2.5,1.3-4.1,3.8-4.8c4-1,19.4-1.5,46.3-1.5c28.9,0,44.8,0.8,47.8,2.3c1.5,0.7,2.3,2,2.3,4c0,2.5-1.3,4.1-3.8,4.8
		c-4,1-19.4,1.5-46.3,1.5c-28.9,0-44.8-0.8-47.8-2.3C0.8,84.7,0,83.4,0,81.4z M2.4,111.5c-1.6-0.8-2.4-2.5-2.4-5.1
		c0-2.7,0.8-4.4,2.4-5.1c1.6-0.8,5-1.1,10.1-1.1c5.2,0,8.6,0.4,10.1,1.1c1.6,0.8,2.4,2.5,2.4,5.1c0,2.7-0.8,4.4-2.4,5.1
		c-1.6,0.8-5,1.1-10.1,1.1C7.3,112.7,4,112.3,2.4,111.5z M2.4,136.6c-1.6-0.8-2.4-2.5-2.4-5.1c0-2.7,0.8-4.4,2.4-5.1
		c1.6-0.8,5-1.1,10.1-1.1c5.2,0,8.6,0.4,10.1,1.1c1.6,0.8,2.4,2.5,2.4,5.1c0,2.7-0.8,4.4-2.4,5.1c-1.6,0.8-5,1.1-10.1,1.1
		C7.3,137.7,4,137.3,2.4,136.6z M2.4,161.6c-1.6-0.8-2.4-2.5-2.4-5.1c0-2.7,0.8-4.4,2.4-5.1c1.6-0.8,5-1.1,10.1-1.1
		c5.2,0,8.6,0.4,10.1,1.1c1.6,0.8,2.4,2.5,2.4,5.1c0,2.7-0.8,4.4-2.4,5.1c-1.6,0.8-5,1.1-10.1,1.1C7.3,162.7,4,162.4,2.4,161.6z
		 M77.5,11.4c-1.6-0.8-2.4-2.5-2.4-5.1c0-2.7,0.8-4.4,2.4-5.1c1.6-0.8,5-1.1,10.1-1.1c5.2,0,8.6,0.4,10.1,1.1
		c1.6,0.8,2.4,2.5,2.4,5.1c0,2.7-0.8,4.4-2.4,5.1c-1.6,0.8-5,1.1-10.1,1.1C82.5,12.5,79.1,12.1,77.5,11.4z M77.5,36.4
		c-1.6-0.8-2.4-2.5-2.4-5.1c0-2.7,0.8-4.4,2.4-5.1c1.6-0.8,5-1.1,10.1-1.1c5.2,0,8.6,0.4,10.1,1.1c1.6,0.8,2.4,2.5,2.4,5.1
		c0,2.7-0.8,4.4-2.4,5.1c-1.6,0.8-5,1.1-10.1,1.1C82.5,37.6,79.1,37.2,77.5,36.4z M77.5,61.5c-1.6-0.8-2.4-2.5-2.4-5.1
		c0-2.7,0.8-4.4,2.4-5.1c1.6-0.8,5-1.1,10.1-1.1c5.2,0,8.6,0.4,10.1,1.1c1.6,0.8,2.4,2.5,2.4,5.1c0,2.7-0.8,4.4-2.4,5.1
		c-1.6,0.8-5,1.1-10.1,1.1C82.5,62.6,79.1,62.2,77.5,61.5z M77.5,111.5c-1.6-0.8-2.4-2.5-2.4-5.1c0-2.7,0.8-4.4,2.4-5.1
		c1.6-0.8,5-1.1,10.1-1.1c5.2,0,8.6,0.4,10.1,1.1c1.6,0.8,2.4,2.5,2.4,5.1c0,2.7-0.8,4.4-2.4,5.1c-1.6,0.8-5,1.1-10.1,1.1
		C82.5,112.7,79.1,112.3,77.5,111.5z M77.5,136.6c-1.6-0.8-2.4-2.5-2.4-5.1c0-2.7,0.8-4.4,2.4-5.1c1.6-0.8,5-1.1,10.1-1.1
		c5.2,0,8.6,0.4,10.1,1.1c1.6,0.8,2.4,2.5,2.4,5.1c0,2.7-0.8,4.4-2.4,5.1c-1.6,0.8-5,1.1-10.1,1.1C82.5,137.7,79.1,137.3,77.5,136.6
		z M77.5,161.6c-1.6-0.8-2.4-2.5-2.4-5.1c0-2.7,0.8-4.4,2.4-5.1c1.6-0.8,5-1.1,10.1-1.1c5.2,0,8.6,0.4,10.1,1.1
		c1.6,0.8,2.4,2.5,2.4,5.1c0,2.7-0.8,4.4-2.4,5.1c-1.6,0.8-5,1.1-10.1,1.1C82.5,162.7,79.1,162.4,77.5,161.6z"/>
	<path class="st0" d="M177.6,86.5c-1.6-0.8-2.4-2.5-2.4-5.1c0-2.7,0.8-4.4,2.4-5.1c1.6-0.8,5-1.1,10.1-1.1c5.2,0,8.6,0.4,10.1,1.1
		c1.6,0.8,2.4,2.5,2.4,5.1c0,2.7-0.8,4.4-2.4,5.1c-1.6,0.8-5,1.1-10.1,1.1C182.6,87.6,179.2,87.3,177.6,86.5z M175.3,106.4
		c0-2.5,1.3-4.1,3.8-4.8c4-1,19.4-1.5,46.3-1.5c28.9,0,44.8,0.8,47.8,2.3c1.5,0.7,2.3,2,2.3,4c0,2.5-1.3,4.1-3.8,4.8
		c-4,1-19.4,1.5-46.3,1.5c-28.9,0-44.8-0.8-47.8-2.3C176,109.8,175.3,108.4,175.3,106.4z M177.6,136.6c-1.6-0.8-2.4-2.5-2.4-5.1
		c0-2.7,0.8-4.4,2.4-5.1c1.6-0.8,5-1.1,10.1-1.1c5.2,0,8.6,0.4,10.1,1.1c1.6,0.8,2.4,2.5,2.4,5.1c0,2.7-0.8,4.4-2.4,5.1
		c-1.6,0.8-5,1.1-10.1,1.1C182.6,137.7,179.2,137.3,177.6,136.6z M177.6,161.6c-1.6-0.8-2.4-2.5-2.4-5.1c0-2.7,0.8-4.4,2.4-5.1
		c1.6-0.8,5-1.1,10.1-1.1c5.2,0,8.6,0.4,10.1,1.1c1.6,0.8,2.4,2.5,2.4,5.1c0,2.7-0.8,4.4-2.4,5.1c-1.6,0.8-5,1.1-10.1,1.1
		C182.6,162.7,179.2,162.4,177.6,161.6z M190.2,61.5c-1.6-0.8-2.4-2.5-2.4-5.1c0-2.7,0.8-4.4,2.4-5.1c1.6-0.8,5-1.1,10.1-1.1
		c5.2,0,8.6,0.4,10.1,1.1c1.6,0.8,2.4,2.5,2.4,5.1c0,2.7-0.8,4.4-2.4,5.1c-1.6,0.8-5,1.1-10.1,1.1C195.1,62.6,191.7,62.2,190.2,61.5
		z M204.3,36.6c-2.7-0.7-4-2.4-4-5.3c0-2.8,1.3-4.6,4-5.3c2.7-0.7,9.7-1,21-1c11.3,0,18.4,0.3,21,1c2.7,0.7,4,2.4,4,5.3
		c0,2.8-1.3,4.6-4,5.3c-2.7,0.7-9.7,1-21,1C214,37.6,207,37.2,204.3,36.6z M215.2,11.4c-1.6-0.8-2.4-2.5-2.4-5.1
		c0-2.7,0.8-4.4,2.4-5.1c1.6-0.8,5-1.1,10.1-1.1c5.2,0,8.6,0.4,10.1,1.1c1.6,0.8,2.4,2.5,2.4,5.1c0,2.7-0.8,4.4-2.4,5.1
		c-1.6,0.8-5,1.1-10.1,1.1C220.2,12.5,216.8,12.1,215.2,11.4z M240.2,61.5c-1.6-0.8-2.4-2.5-2.4-5.1c0-2.7,0.8-4.4,2.4-5.1
		c1.6-0.8,5-1.1,10.1-1.1c5.2,0,8.6,0.4,10.1,1.1c1.6,0.8,2.4,2.5,2.4,5.1c0,2.7-0.8,4.4-2.4,5.1c-1.6,0.8-5,1.1-10.1,1.1
		C245.2,62.6,241.8,62.2,240.2,61.5z M252.8,86.5c-1.6-0.8-2.4-2.5-2.4-5.1c0-2.7,0.8-4.4,2.4-5.1c1.6-0.8,5-1.1,10.1-1.1
		c5.2,0,8.6,0.4,10.1,1.1c1.6,0.8,2.4,2.5,2.4,5.1c0,2.7-0.8,4.4-2.4,5.1c-1.6,0.8-5,1.1-10.1,1.1C257.7,87.6,254.3,87.3,252.8,86.5
		z M252.8,136.6c-1.6-0.8-2.4-2.5-2.4-5.1c0-2.7,0.8-4.4,2.4-5.1c1.6-0.8,5-1.1,10.1-1.1c5.2,0,8.6,0.4,10.1,1.1
		c1.6,0.8,2.4,2.5,2.4,5.1c0,2.7-0.8,4.4-2.4,5.1c-1.6,0.8-5,1.1-10.1,1.1C257.7,137.7,254.3,137.3,252.8,136.6z M252.8,161.6
		c-1.6-0.8-2.4-2.5-2.4-5.1c0-2.7,0.8-4.4,2.4-5.1c1.6-0.8,5-1.1,10.1-1.1c5.2,0,8.6,0.4,10.1,1.1c1.6,0.8,2.4,2.5,2.4,5.1
		c0,2.7-0.8,4.4-2.4,5.1c-1.6,0.8-5,1.1-10.1,1.1C257.7,162.7,254.3,162.4,252.8,161.6z"/>
	<path class="st0" d="M352.9,11.4c-1.6-0.8-2.4-2.5-2.4-5.1c0-2.7,0.8-4.4,2.4-5.1c1.6-0.8,5-1.1,10.1-1.1c5.2,0,8.6,0.4,10.1,1.1
		c1.6,0.8,2.4,2.5,2.4,5.1c0,2.7-0.8,4.4-2.4,5.1c-1.6,0.8-5,1.1-10.1,1.1C357.9,12.5,354.5,12.1,352.9,11.4z M352.9,161.6
		c-1.6-0.8-2.4-2.5-2.4-5.1c0-2.7,0.8-4.4,2.4-5.1c1.6-0.8,5-1.1,10.1-1.1c5.2,0,8.6,0.4,10.1,1.1c1.6,0.8,2.4,2.5,2.4,5.1
		c0,2.7-0.8,4.4-2.4,5.1c-1.6,0.8-5,1.1-10.1,1.1C357.9,162.7,354.5,162.4,352.9,161.6z M365.4,36.4c-1.6-0.8-2.4-2.5-2.4-5.1
		c0-2.7,0.8-4.4,2.4-5.1c1.6-0.8,5-1.1,10.1-1.1c5.2,0,8.6,0.4,10.1,1.1c1.6,0.8,2.4,2.5,2.4,5.1c0,2.7-0.8,4.4-2.4,5.1
		c-1.6,0.8-5,1.1-10.1,1.1C370.4,37.6,367,37.2,365.4,36.4z M365.4,136.6c-1.6-0.8-2.4-2.5-2.4-5.1c0-2.7,0.8-4.4,2.4-5.1
		c1.6-0.8,5-1.1,10.1-1.1c5.2,0,8.6,0.4,10.1,1.1c1.6,0.8,2.4,2.5,2.4,5.1c0,2.7-0.8,4.4-2.4,5.1c-1.6,0.8-5,1.1-10.1,1.1
		C370.4,137.7,367,137.3,365.4,136.6z M379.6,61.6c-2.7-0.7-4-2.4-4-5.3c0-2.8,1.3-4.6,4-5.3c2.7-0.7,9.7-1,21-1
		c11.3,0,18.4,0.3,21,1c2.7,0.7,4,2.4,4,5.3c0,2.8-1.3,4.6-4,5.3c-2.7,0.7-9.7,1-21,1C389.2,62.6,382.2,62.3,379.6,61.6z
		 M379.6,111.7c-2.7-0.7-4-2.4-4-5.3c0-2.8,1.3-4.6,4-5.3c2.7-0.7,9.7-1,21-1c11.3,0,18.4,0.3,21,1c2.7,0.7,4,2.4,4,5.3
		c0,2.8-1.3,4.6-4,5.3c-2.7,0.7-9.7,1-21,1C389.2,112.7,382.2,112.3,379.6,111.7z M390.5,86.5c-1.6-0.8-2.4-2.5-2.4-5.1
		c0-2.7,0.8-4.4,2.4-5.1c1.6-0.8,5-1.1,10.1-1.1c5.2,0,8.6,0.4,10.1,1.1c1.6,0.8,2.4,2.5,2.4,5.1c0,2.7-0.8,4.4-2.4,5.1
		c-1.6,0.8-5,1.1-10.1,1.1C395.4,87.6,392,87.3,390.5,86.5z M415.5,36.4c-1.6-0.8-2.4-2.5-2.4-5.1c0-2.7,0.8-4.4,2.4-5.1
		c1.6-0.8,5-1.1,10.1-1.1c5.2,0,8.6,0.4,10.1,1.1c1.6,0.8,2.4,2.5,2.4,5.1c0,2.7-0.8,4.4-2.4,5.1c-1.6,0.8-5,1.1-10.1,1.1
		C420.5,37.6,417.1,37.2,415.5,36.4z M415.5,136.6c-1.6-0.8-2.4-2.5-2.4-5.1c0-2.7,0.8-4.4,2.4-5.1c1.6-0.8,5-1.1,10.1-1.1
		c5.2,0,8.6,0.4,10.1,1.1c1.6,0.8,2.4,2.5,2.4,5.1c0,2.7-0.8,4.4-2.4,5.1c-1.6,0.8-5,1.1-10.1,1.1
		C420.5,137.7,417.1,137.3,415.5,136.6z M428,11.4c-1.6-0.8-2.4-2.5-2.4-5.1c0-2.7,0.8-4.4,2.4-5.1c1.6-0.8,5-1.1,10.1-1.1
		c5.2,0,8.6,0.4,10.1,1.1c1.6,0.8,2.4,2.5,2.4,5.1c0,2.7-0.8,4.4-2.4,5.1c-1.6,0.8-5,1.1-10.1,1.1C433,12.5,429.6,12.1,428,11.4z
		 M428,161.6c-1.6-0.8-2.4-2.5-2.4-5.1c0-2.7,0.8-4.4,2.4-5.1c1.6-0.8,5-1.1,10.1-1.1c5.2,0,8.6,0.4,10.1,1.1
		c1.6,0.8,2.4,2.5,2.4,5.1c0,2.7-0.8,4.4-2.4,5.1c-1.6,0.8-5,1.1-10.1,1.1C433,162.7,429.6,162.4,428,161.6z"/>
</g>
</svg>
